<?xml version="1.0" encoding="UTF-8"?>
<svg viewBox="0 0 1200 300" xmlns="http://www.w3.org/2000/svg" preserveAspectRatio="xMidYMid meet">
  <!-- Background -->
  <rect width="1200" height="300" fill="#333333"/>
  
  <!-- Subtle pattern -->
  <defs>
    <pattern id="crossPattern" patternUnits="userSpaceOnUse" width="20" height="20">
      <rect width="20" height="20" fill="#333333"/>
      <path d="M 0,10 L 20,10 M 10,0 L 10,20" stroke="#3a3a3a" stroke-width="1"/>
    </pattern>
  </defs>
  <rect width="1200" height="300" fill="url(#crossPattern)"/>
  
  <!-- Content frame -->
  <rect x="20" y="20" width="1160" height="260" fill="none" stroke="#e63946" stroke-width="3" rx="5" ry="5"/>
  
  <!-- Center content -->
  <g transform="translate(600, 150)">
    <!-- Logo -->
    <g transform="translate(0, 0) scale(0.5)">
      <text x="-120" y="0" font-family="Arial, sans-serif" font-size="180" font-weight="bold" fill="#ffffff">e</text>
      <text x="15" y="0" font-family="Arial, sans-serif" font-size="120" font-weight="bold" fill="#e63946">P</text>
      <rect x="95" y="-60" width="18" height="60" fill="#e63946" rx="2" ry="2"/>
      <text x="125" y="0" font-family="Arial, sans-serif" font-size="120" font-weight="bold" fill="#e63946">ck</text>
      <path d="M105,-110 C110,-99 114,-89 116,-80 C118,-70 112,-63 105,-63 C98,-63 92,-70 94,-80 C96,-89 100,-99 105,-110Z" fill="#c1121f" />
      <line x1="-120" y1="30" x2="230" y2="30" stroke="#ffffff" stroke-width="8" />
    </g>
  </g>
  
  <!-- Tagline at bottom -->
  <text x="600" y="250" font-family="Arial, sans-serif" font-size="24" text-anchor="middle" fill="#ffffff">PRECISION MEDICAL TECHNOLOGY</text>
</svg>